<?xml version="1.0" encoding="UTF-8" standalone="no"?>
<!-- Created with Inkscape (http://www.inkscape.org/) -->

<svg
   xmlns:dc="http://purl.org/dc/elements/1.1/"
   xmlns:cc="http://creativecommons.org/ns#"
   xmlns:rdf="http://www.w3.org/1999/02/22-rdf-syntax-ns#"
   xmlns:svg="http://www.w3.org/2000/svg"
   xmlns="http://www.w3.org/2000/svg"
   xmlns:xlink="http://www.w3.org/1999/xlink"
   xmlns:sodipodi="http://sodipodi.sourceforge.net/DTD/sodipodi-0.dtd"
   xmlns:inkscape="http://www.inkscape.org/namespaces/inkscape"
   width="230.19756mm"
   height="100.00003mm"
   viewBox="0 0 815.66063 354.33082"
   id="svg5089"
   version="1.1"
   inkscape:version="0.91 r13725"
   sodipodi:docname="carteltipoCatering.svg">
  <defs
     id="defs5091">
    <radialGradient
       gradientUnits="userSpaceOnUse"
       gradientTransform="matrix(1,0,0,0.63032453,-18.609476,44.987316)"
       r="98.585403"
       fy="719.92963"
       fx="135.10069"
       cy="719.92963"
       cx="135.10069"
       id="radialGradient4400"
       xlink:href="#linearGradient4394"
       inkscape:collect="always" />
    <linearGradient
       id="linearGradient4394"
       inkscape:collect="always">
      <stop
         id="stop4396"
         offset="0"
         style="stop-color:#cbd219;stop-opacity:1" />
      <stop
         id="stop4398"
         offset="1"
         style="stop-color:#a0b421;stop-opacity:1" />
    </linearGradient>
  </defs>
  <sodipodi:namedview
     id="base"
     pagecolor="#ffffff"
     bordercolor="#666666"
     borderopacity="1.0"
     inkscape:pageopacity="0.0"
     inkscape:pageshadow="2"
     inkscape:zoom="0.12374369"
     inkscape:cx="221.73212"
     inkscape:cy="788.28398"
     inkscape:document-units="px"
     inkscape:current-layer="layer1"
     showgrid="false"
     fit-margin-top="0"
     fit-margin-left="0"
     fit-margin-right="0"
     fit-margin-bottom="0"
     inkscape:window-width="1280"
     inkscape:window-height="958"
     inkscape:window-x="0"
     inkscape:window-y="27"
     inkscape:window-maximized="1" />
  <metadata
     id="metadata5094">
    <rdf:RDF>
      <cc:Work
         rdf:about="">
        <dc:format>image/svg+xml</dc:format>
        <dc:type
           rdf:resource="http://purl.org/dc/dcmitype/StillImage" />
        <dc:title></dc:title>
      </cc:Work>
    </rdf:RDF>
  </metadata>
  <g
     inkscape:label="Capa 1"
     inkscape:groupmode="layer"
     id="layer1"
     transform="translate(57.538452,-318.50089)">
    <g
       id="g5025"
       style="stroke:none"
       transform="matrix(1.0493665,0,0,1.1427687,-35.740076,-323.69798)">
      <rect
         style="color:#000000;clip-rule:nonzero;display:inline;overflow:visible;visibility:visible;opacity:1;isolation:auto;mix-blend-mode:normal;color-interpolation:sRGB;color-interpolation-filters:linearRGB;solid-color:#000000;solid-opacity:1;fill:none;fill-opacity:1;fill-rule:nonzero;stroke:none;stroke-width:0.75680619;stroke-linecap:butt;stroke-linejoin:miter;stroke-miterlimit:10;stroke-dasharray:none;stroke-dashoffset:0;stroke-opacity:1;marker:none;color-rendering:auto;image-rendering:auto;shape-rendering:auto;text-rendering:auto;enable-background:accumulate"
         id="rect4485"
         width="708.60461"
         height="247.27469"
         x="14.599033"
         y="593.18188" />
      <rect
         style="color:#000000;clip-rule:nonzero;display:inline;overflow:visible;visibility:visible;opacity:1;isolation:auto;mix-blend-mode:normal;color-interpolation:sRGB;color-interpolation-filters:linearRGB;solid-color:#000000;solid-opacity:1;fill:#a0b421;fill-opacity:1;fill-rule:nonzero;stroke:none;stroke-width:1.05200005;stroke-linecap:butt;stroke-linejoin:miter;stroke-miterlimit:10;stroke-dasharray:none;stroke-dashoffset:0;stroke-opacity:1;marker:none;color-rendering:auto;image-rendering:auto;shape-rendering:auto;text-rendering:auto;enable-background:accumulate"
         id="rect4487"
         width="708.66144"
         height="124.01575"
         x="14.22086"
         y="716.81934" />
    </g>
    <text
       transform="scale(0.95357138,1.0486892)"
       sodipodi:linespacing="100%"
       id="text4533"
       y="434.73175"
       x="479.11969"
       style="font-style:normal;font-variant:normal;font-weight:600;font-stretch:normal;font-size:59.5982132px;line-height:100%;font-family:'Titillium Web';-inkscape-font-specification:'Titillium Web, Semi-Bold';text-align:center;letter-spacing:0px;word-spacing:-0.00953571px;writing-mode:lr-tb;text-anchor:middle;fill:#1a1a1a;fill-opacity:1;stroke:none;stroke-width:1px;stroke-linecap:butt;stroke-linejoin:miter;stroke-opacity:1"
       xml:space="preserve"><tspan
         y="434.73175"
         x="479.11969"
         id="tspan5131"
         sodipodi:role="line">Novaterra Catering</tspan></text>
    <path
       id="path3275"
       style="fill:#000000;fill-opacity:1;fill-rule:nonzero;stroke:none"
       d="m 152.12812,558.57722 c -6.3828,-4.5379 -20.8862,-15.3801 -24.2373,-22.4503 l -30.858496,13.5373 c 0,0 2.6034,4.0259 6.031296,8.913 l 49.0645,0 z"
       inkscape:connector-curvature="0" />
    <path
       id="path3277"
       style="fill:none;stroke:#ffffff;stroke-width:3.02999425;stroke-linecap:butt;stroke-linejoin:miter;stroke-miterlimit:10.00000095;stroke-dasharray:none;stroke-opacity:1"
       d="m 56.069424,438.97602 c -19.7876,0 -35.8241,15.3876 -35.8241,34.3663 l 0,50.8693 c 0,18.9788 16.0365,34.3671 35.8241,34.3671 l 120.838996,0 c 19.7896,0 35.8267,-15.3883 35.8267,-34.3671 l 0,-50.8693 c 0,-18.9787 -16.0371,-34.3663 -35.8267,-34.3663 l -120.838996,0 z"
       inkscape:connector-curvature="0" />
    <path
       id="path3279"
       style="fill:url(#radialGradient4400);fill-opacity:1;stroke:#ffffff;stroke-width:4.6789999;stroke-linecap:butt;stroke-linejoin:miter;stroke-miterlimit:10.00000095;stroke-dasharray:none;stroke-opacity:1"
       d="m 56.069424,558.57792 c -19.7876,0 -35.8241,-15.3882 -35.8241,-34.367 l 0,-50.8667 c 0,-18.9815 16.0365,-34.3689 35.8241,-34.3689 l 120.838996,0 c 19.7875,0 35.8287,15.3874 35.8287,34.3689 l 0,50.8667 c 0,18.9788 -16.0412,34.367 -35.8287,34.367 l -120.838996,0 z"
       inkscape:connector-curvature="0" />
    <path
       id="path3281"
       style="fill:#ffffff;fill-opacity:1;fill-rule:nonzero;stroke:none"
       d="m 200.37902,494.34022 c 0,1.413 -1.7936,2.5638 -3.9989,2.5638 l -167.137696,0 c -2.2131,0 -4.0016,-1.1508 -4.0016,-2.5638 0,-1.4197 1.7885,-2.5676 4.0016,-2.5676 l 167.137696,0 c 2.2053,0 3.9989,1.1479 3.9989,2.5676"
       inkscape:connector-curvature="0" />
    <path
       id="path3283"
       style="fill:#ffffff;fill-opacity:1;fill-rule:nonzero;stroke:none"
       d="m 111.17102,521.21132 c 0,0 0.053,-5.6364 2.8774,-8.3441 2.8247,-2.7074 3.6682,-6.7701 6.2172,-11.6457 2.5337,-4.8756 5.0777,-4.0597 6.2069,-5.1478 1.1287,-1.0806 -3.3872,-1.6223 -10.4441,1.8993 -7.0627,3.5207 -4.238,10.0185 -12.7102,5.6819 -8.467096,-4.3298 -17.220996,-8.6762 -23.433196,-8.397 -6.2092,0.2741 -11.2919,-1.3475 -4.8017,2.4429 6.4959,3.7929 11.5786,5.1478 14.4033,10.5623 2.8248,5.4173 9.8697,15.5255 9.8697,15.5255 l 11.814696,-2.5773 z"
       inkscape:connector-curvature="0" />
    <path
       id="path3285"
       style="fill:#ffffff;fill-opacity:1;fill-rule:nonzero;stroke:none"
       d="m 116.45992,516.59632 -25.138996,5.3237 6.2219,22.8843 26.169696,-10.9404 -7.2526,-17.2676 z"
       inkscape:connector-curvature="0" />
    <path
       id="path3287"
       style="fill:#a9bc0d;fill-opacity:1;fill-rule:nonzero;stroke:none"
       d="m 116.43932,523.13522 c -0.3434,1.3833 -1.7963,2.2381 -3.2414,1.9108 -1.4451,-0.3343 -2.3305,-1.7205 -1.9893,-3.1096 0.3437,-1.3833 1.7936,-2.2334 3.2359,-1.9061 1.4451,0.3276 2.3383,1.7186 1.9948,3.1049"
       inkscape:connector-curvature="0" />
    <path
       id="path3289"
       style="fill:#19181e;fill-opacity:1;fill-rule:nonzero;stroke:none"
       d="m 49.141924,480.62122 c -0.3038,0.029 -0.6174,0.058 -0.9388,0.087 -0.3256,0.029 -0.6443,0.049 -0.9579,0.061 -0.3138,0.01 -0.5896,0.012 -0.8337,0.012 l -7.431,-12.4808 c -0.1229,-0.2361 -0.2779,-0.5629 -0.4714,-0.9891 -0.1906,-0.4284 -0.3484,-0.8351 -0.4694,-1.2245 l -0.2732,0.031 c 0.04,0.3301 0.075,0.7224 0.1054,1.1775 0.03,0.457 0.045,0.8397 0.045,1.1502 l 0,9.02 c 0,1.2804 -0.2709,2.1783 -0.8176,2.6933 -0.5442,0.5124 -1.3242,0.7694 -2.3355,0.7694 -0.7682,0 -1.4152,-0.1848 -1.9424,-0.5533 -0.5261,-0.3682 -0.7872,-0.9891 -0.7872,-1.8603 l 0,-0.8178 1.485,0 c 0.4039,0 0.6678,-0.07 0.79,-0.2171 0.1209,-0.1446 0.1806,-0.4113 0.1806,-0.7987 l 0,-15.4504 c 0.2838,-0.041 0.6024,-0.077 0.9559,-0.1182 0.3543,-0.039 0.7078,-0.067 1.064,-0.087 0.3513,-0.019 0.6947,-0.034 1.0312,-0.044 0.3314,-0.01 0.6299,-0.014 0.8931,-0.014 l 7.0073,11.8144 c 0.1608,0.2695 0.3334,0.6017 0.517,0.9891 0.1807,0.3875 0.3412,0.7942 0.4842,1.2226 l 0.2733,-0.032 c -0.043,-0.4065 -0.081,-0.8178 -0.1232,-1.2346 -0.04,-0.419 -0.06,-0.7916 -0.06,-1.1215 l 0,-11.5805 3.4271,0 0,19.4938 c -0.2411,0.041 -0.5149,0.074 -0.8177,0.103"
       inkscape:connector-curvature="0" />
    <path
       id="path3291"
       style="fill:#19181e;fill-opacity:1;fill-rule:nonzero;stroke:none"
       d="m 71.648924,470.83052 c 0,1.7641 -0.2082,3.2826 -0.6222,4.5536 -0.414,1.2702 -1.0013,2.3173 -1.7587,3.1428 -0.7582,0.8229 -1.6684,1.432 -2.7294,1.8194 -1.0617,0.3875 -2.2311,0.58 -3.5054,0.58 -1.3121,0 -2.5013,-0.1877 -3.5623,-0.5684 -1.061,-0.3772 -1.9672,-0.9694 -2.7146,-1.7738 -0.7501,-0.8036 -1.3249,-1.8384 -1.7288,-3.0992 -0.4062,-1.2587 -0.6074,-2.7724 -0.6074,-4.5391 0,-1.6872 0.2012,-3.1717 0.6074,-4.4521 0.4039,-1.2805 0.9834,-2.3467 1.7439,-3.2008 0.7574,-0.8522 1.6684,-1.4921 2.7294,-1.9206 1.061,-0.4263 2.2381,-0.6377 3.5324,-0.6377 1.3169,0 2.5039,0.1922 3.5651,0.5797 1.061,0.3875 1.9669,0.9968 2.7146,1.8194 0.7481,0.8236 1.3249,1.87 1.7289,3.1429 0.4039,1.2709 0.6071,2.7895 0.6071,4.5538 z m -4.0644,0 c 0,-1.3405 -0.1,-2.4526 -0.3035,-3.3476 -0.2005,-0.8902 -0.4943,-1.6101 -0.8784,-2.1517 -0.3861,-0.5439 -0.8605,-0.9265 -1.4273,-1.1502 -0.5675,-0.2236 -1.2117,-0.3348 -1.9421,-0.3348 -0.7446,0 -1.4097,0.1111 -1.9842,0.3348 -0.5776,0.2238 -1.054,0.6064 -1.4281,1.1502 -0.3733,0.5415 -0.657,1.2614 -0.8497,2.1517 -0.1914,0.895 -0.2868,2.007 -0.2868,3.3476 0,1.2803 0.085,2.3609 0.2589,3.2437 0.1706,0.8834 0.4438,1.6003 0.8179,2.1517 0.3733,0.554 0.8478,0.9578 1.4253,1.2082 0.5765,0.253 1.2595,0.3778 2.0467,0.3778 0.7908,0 1.4727,-0.1201 2.0495,-0.3607 0.5748,-0.243 1.052,-0.638 1.4253,-1.1818 0.3741,-0.5414 0.6471,-1.2586 0.8179,-2.1514 0.1734,-0.8903 0.2586,-1.988 0.2586,-3.2875"
       inkscape:connector-curvature="0" />
    <path
       id="path3293"
       style="fill:#19181e;fill-opacity:1;fill-rule:nonzero;stroke:none"
       d="m 90.819424,461.19912 c -0.9103,3.3354 -1.8817,6.6084 -2.9101,9.8189 -1.0341,3.2104 -2.125,6.4161 -3.2793,9.6169 l -4.2151,0 -5.0351,-15.6237 c -0.1229,-0.3874 -0.2659,-0.6548 -0.4388,-0.7987 -0.1736,-0.1475 -0.4415,-0.219 -0.8058,-0.219 l -1.2118,0 0,-1.0787 c 0,-1.4536 0.8585,-2.1801 2.5766,-2.1801 0.8078,0 1.5033,0.178 2.0773,0.5369 0.5776,0.3607 1.0064,1.0512 1.2901,2.0793 l 3.3666,11.6116 c 0.083,0.2721 0.1481,0.5388 0.1985,0.7987 0.05,0.2628 0.095,0.5302 0.1352,0.8017 l 0.2737,0 c 0.02,-0.2715 0.05,-0.5437 0.093,-0.8159 0.038,-0.2715 0.1109,-0.5343 0.211,-0.7845 l 4.1547,-14.0832 c 0.2433,0 0.5163,0 0.8201,0.014 0.3036,0.01 0.6172,0.029 0.9408,0.057 0.3237,0.029 0.6423,0.063 0.9559,0.1017 0.3136,0.038 0.5796,0.087 0.8029,0.1467"
       inkscape:connector-curvature="0" />
    <path
       id="path3295"
       style="fill:#19181e;fill-opacity:1;fill-rule:nonzero;stroke:none"
       d="m 108.68622,480.46162 c -0.5874,0.1153 -1.1892,0.1971 -1.8064,0.2484 -0.6175,0.048 -1.2466,0.072 -1.8947,0.072 l -1.6684,-5.3548 -6.339296,0 -0.911,3.0278 c -0.2431,0.8132 -0.5974,1.429 -1.061,1.8458 -0.4644,0.419 -1.1245,0.6257 -1.9722,0.6257 -0.911,0 -1.5681,-0.1925 -1.972,-0.58 -0.4039,-0.3901 -0.6074,-0.9987 -0.6074,-1.8335 l 0,-0.8455 1.2752,0 c 0.404,0 0.6672,-0.072 0.7873,-0.2188 0.123,-0.1441 0.2539,-0.4086 0.3967,-0.799 l 5.3062,-15.6263 4.156696,0 c 1.1315,3.2608 2.2282,6.515 3.2921,9.7635 1.061,3.2495 2.0645,6.4741 3.0182,9.6749 z m -8.2218,-14.2593 c -0.04,-0.096 -0.09,-0.2886 -0.1503,-0.5798 -0.063,-0.2913 -0.093,-0.6016 -0.093,-0.9341 l -0.241096,0 c 0,0.3324 -0.025,0.6428 -0.074,0.9341 -0.051,0.2912 -0.098,0.4838 -0.1381,0.5798 l -1.9094,6.2285 4.548496,0 -1.9421,-6.2285 z"
       inkscape:connector-curvature="0" />
    <path
       id="path3297"
       style="fill:#ffffff;fill-opacity:1;fill-rule:nonzero;stroke:none"
       d="m 123.50352,462.62482 c -0.053,0.561 -0.128,1.0949 -0.2283,1.6007 l -4.7016,0 0,16.4108 -3.7906,0 0,-16.4108 -2.5189,0 c -0.4039,0 -0.6777,0.063 -0.8179,0.1875 -0.143,0.1275 -0.2133,0.3752 -0.2133,0.7414 l 0,1.1932 -0.6977,0 c -0.8477,0 -1.4777,-0.221 -1.8816,-0.6664 -0.4042,-0.4477 -0.6046,-1.078 -0.6046,-1.8937 0,-0.9293 0.2837,-1.6245 0.8484,-2.0795 0.5668,-0.4551 1.3142,-0.6855 2.2452,-0.6855 l 12.4362,0 c 0,0.5075 -0.025,1.0396 -0.075,1.6023"
       inkscape:connector-curvature="0" />
    <path
       id="path3299"
       style="fill:#ffffff;fill-opacity:1;fill-rule:nonzero;stroke:none"
       d="m 139.26162,479.00582 c -0.06,0.5437 -0.1329,1.0853 -0.2104,1.6291 l -11.9221,0 0,-19.611 11.7086,0 c 0,0.4857 -0.025,1.0151 -0.078,1.5853 -0.05,0.573 -0.1159,1.1121 -0.1962,1.6156 l -7.6444,0 0,4.7432 5.673,0 0,3.1428 -5.673,0 0,5.324 8.4325,0 c 0,0.5047 -0.03,1.0274 -0.09,1.571"
       inkscape:connector-curvature="0" />
    <path
       id="path3301"
       style="fill:#ffffff;fill-opacity:1;fill-rule:nonzero;stroke:none"
       d="m 159.08492,480.38872 c -0.3741,0.3588 -0.9765,0.5387 -1.8063,0.5387 -0.7482,0 -1.3754,-0.1703 -1.8797,-0.5102 -0.5063,-0.3391 -1.0214,-0.9939 -1.5475,-1.9633 l -3.0339,-5.4125 -2.5162,0 0,7.5948 -3.7003,0 0,-15.6838 c 0,-0.3874 -0.063,-0.6451 -0.1834,-0.7727 -0.1202,-0.1248 -0.3741,-0.1878 -0.7574,-0.1878 l -1.4579,0 0,-0.989 c 0,-0.8541 0.2531,-1.4435 0.7602,-1.7758 0.5042,-0.3302 1.1217,-0.4932 1.849,-0.4932 0.5868,0 1.1345,0.072 1.6385,0.219 0.5043,0.144 0.9411,0.3923 1.3044,0.7408 0.6272,-0.3875 1.2497,-0.6447 1.8668,-0.7723 0.6144,-0.1254 1.2467,-0.1875 1.894,-0.1875 0.8505,0 1.6533,0.1105 2.4137,0.3343 0.7572,0.2238 1.4123,0.573 1.9692,1.0464 0.5568,0.477 1.0013,1.0835 1.3347,1.8194 0.3337,0.7369 0.5023,1.6108 0.5023,2.6189 0,1.3379 -0.3038,2.4786 -0.9112,3.4199 -0.6071,0.9407 -1.4777,1.6052 -2.6092,1.9899 l 2.7929,4.7176 c 0.2202,0.3676 0.4237,0.6228 0.6066,0.7694 0.1807,0.1447 0.4644,0.2197 0.8483,0.2197 l 1.1841,0 0,1.0751 c 0,0.7369 -0.1884,1.2854 -0.5617,1.6442 z m -5.1738,-13.6023 c 0,-1.1456 -0.2809,-1.9347 -0.8477,-2.3727 -0.5668,-0.4359 -1.335,-0.6549 -2.3056,-0.6549 -0.3841,0 -0.7951,0.019 -1.2297,0.058 -0.4337,0.041 -0.8427,0.1075 -1.2268,0.2039 l 0,6.2577 2.0623,0 c 1.1516,0 2.0319,-0.2577 2.6393,-0.7728 0.6044,-0.5123 0.9082,-1.4226 0.9082,-2.7192"
       inkscape:connector-curvature="0" />
    <path
       id="path3303"
       style="fill:#ffffff;fill-opacity:1;fill-rule:nonzero;stroke:none"
       d="m 178.70972,480.38872 c -0.3763,0.3588 -0.9757,0.5387 -1.8064,0.5387 -0.7474,0 -1.3748,-0.1703 -1.8788,-0.5102 -0.5071,-0.3391 -1.0214,-0.9939 -1.5482,-1.9633 l -3.0333,-5.4125 -2.5161,0 0,7.5948 -3.7011,0 0,-15.6838 c 0,-0.3874 -0.062,-0.6451 -0.1827,-0.7727 -0.1208,-0.1248 -0.374,-0.1878 -0.7581,-0.1878 l -1.4572,0 0,-0.989 c 0,-0.8541 0.2532,-1.4435 0.7602,-1.7758 0.5043,-0.3302 1.1215,-0.4932 1.8491,-0.4932 0.5868,0 1.1337,0.072 1.6378,0.219 0.5042,0.144 0.941,0.3923 1.305,0.7408 0.6272,-0.3875 1.2497,-0.6447 1.8661,-0.7723 0.6152,-0.1254 1.2474,-0.1875 1.8947,-0.1875 0.8505,0 1.6534,0.1105 2.4136,0.3343 0.7574,0.2238 1.4125,0.573 1.9694,1.0464 0.5567,0.477 1.0013,1.0835 1.3347,1.8194 0.3337,0.7369 0.5015,1.6108 0.5015,2.6189 0,1.3379 -0.3038,2.4786 -0.9104,3.4199 -0.6072,0.9407 -1.4778,1.6052 -2.6092,1.9899 l 2.7921,4.7176 c 0.221,0.3676 0.4237,0.6228 0.6044,0.7694 0.1836,0.1447 0.4674,0.2197 0.8505,0.2197 l 1.1841,0 0,1.0751 c 0,0.7369 -0.1876,1.2854 -0.5617,1.6442 z m -5.173,-13.6023 c 0,-1.1456 -0.2838,-1.9347 -0.8478,-2.3727 -0.5675,-0.4359 -1.3349,-0.6549 -2.3056,-0.6549 -0.3841,0 -0.7958,0.019 -1.2296,0.058 -0.4338,0.041 -0.8457,0.1075 -1.2268,0.2039 l 0,6.2577 2.0623,0 c 1.1515,0 2.0319,-0.2577 2.6393,-0.7728 0.6044,-0.5123 0.9082,-1.4226 0.9082,-2.7192"
       inkscape:connector-curvature="0" />
    <path
       id="path3305"
       style="fill:#ffffff;fill-opacity:1;fill-rule:nonzero;stroke:none"
       d="m 197.65232,480.46162 c -0.5873,0.1153 -1.1896,0.1971 -1.8063,0.2484 -0.6152,0.048 -1.2474,0.072 -1.8945,0.072 l -1.6684,-5.3548 -6.3394,0 -0.9109,3.0278 c -0.2411,0.8132 -0.5974,1.429 -1.0613,1.8458 -0.4644,0.419 -1.1242,0.6257 -1.9719,0.6257 -0.911,0 -1.5683,-0.1925 -1.9722,-0.58 -0.404,-0.3901 -0.6072,-0.9987 -0.6072,-1.8335 l 0,-0.8455 1.2743,0 c 0.4039,0 0.6678,-0.072 0.788,-0.2188 0.1229,-0.1441 0.2532,-0.4086 0.3969,-0.799 l 5.306,-15.6263 4.1569,0 c 1.1343,3.2608 2.2281,6.515 3.2919,9.7635 1.061,3.2495 2.0645,6.4741 3.0181,9.6749 z m -8.2217,-14.2593 c -0.04,-0.096 -0.09,-0.2886 -0.1508,-0.5798 -0.06,-0.2913 -0.092,-0.6016 -0.092,-0.9341 l -0.2411,0 c 0,0.3324 -0.025,0.6428 -0.076,0.9341 -0.05,0.2912 -0.097,0.4838 -0.1379,0.5798 l -1.9088,6.2285 4.5488,0 -1.9423,-6.2285 z"
       inkscape:connector-curvature="0" />
    <path
       id="path3307"
       style="fill:#ffffff;fill-opacity:1;fill-rule:nonzero;stroke:none"
       d="m 138.08832,529.51852 c 0,0.3827 -0.083,0.7177 -0.2434,1.0014 -0.1606,0.2864 -0.3741,0.517 -0.6372,0.6931 -0.261,0.1808 -0.5676,0.3131 -0.916,0.3998 -0.3485,0.087 -0.7075,0.1295 -1.0789,0.1295 -0.4011,0 -0.8078,-0.043 -1.2167,-0.1295 -0.4089,-0.087 -0.7672,-0.2094 -1.0738,-0.3637 0.057,-0.2551 0.1179,-0.4979 0.1806,-0.7217 0.06,-0.2246 0.1307,-0.4551 0.2055,-0.6931 0.2965,0.1562 0.645,0.2741 1.0439,0.3562 0.4012,0.084 0.783,0.1246 1.1466,0.1246 0.3234,0 0.5547,-0.065 0.6927,-0.1923 0.14,-0.1275 0.2082,-0.3083 0.2082,-0.5369 0,-0.1997 -0.083,-0.3581 -0.2509,-0.4715 -0.1658,-0.1157 -0.3763,-0.219 -0.6302,-0.3082 -0.2504,-0.091 -0.5241,-0.1849 -0.8149,-0.2742 -0.291,-0.091 -0.562,-0.217 -0.8159,-0.3732 -0.2504,-0.1543 -0.4614,-0.3562 -0.6292,-0.6039 -0.1659,-0.2454 -0.2511,-0.5655 -0.2511,-0.9604 0,-0.3827 0.083,-0.7196 0.2431,-1.0082 0.1636,-0.2885 0.3821,-0.5246 0.6601,-0.7124 0.2759,-0.1874 0.5945,-0.3301 0.9586,-0.4262 0.3613,-0.096 0.7423,-0.1441 1.1436,-0.1441 0.2488,0 0.5398,0.019 0.8733,0.053 0.3337,0.039 0.645,0.094 0.931,0.1663 -0.01,0.2096 -0.035,0.4402 -0.081,0.6856 -0.043,0.2477 -0.093,0.4886 -0.1508,0.7292 -0.123,-0.045 -0.268,-0.084 -0.4358,-0.1179 -0.1658,-0.031 -0.3364,-0.06 -0.5151,-0.082 -0.1756,-0.024 -0.3532,-0.041 -0.5288,-0.055 -0.1759,-0.012 -0.3415,-0.019 -0.4946,-0.019 -0.5993,0 -0.9001,0.2503 -0.9001,0.753 0,0.1856 0.082,0.3297 0.2504,0.4409 0.1683,0.1076 0.374,0.2065 0.6222,0.2931 0.2481,0.087 0.5191,0.1781 0.8156,0.2744 0.2958,0.099 0.5667,0.2286 0.8151,0.3997 0.2481,0.1685 0.4567,0.3875 0.6222,0.6496 0.1679,0.2674 0.2512,0.6159 0.2512,1.0445"
       inkscape:connector-curvature="0" />
    <path
       id="path3309"
       style="fill:#ffffff;fill-opacity:1;fill-rule:nonzero;stroke:none"
       d="m 146.17132,528.02382 c 0,0.6111 -0.085,1.1507 -0.2581,1.6125 -0.1707,0.4619 -0.409,0.8475 -0.7153,1.1576 -0.3058,0.3127 -0.6601,0.5485 -1.0663,0.7077 -0.4067,0.1588 -0.8455,0.2406 -1.3219,0.2406 -0.4872,0 -0.9338,-0.072 -1.337,-0.2188 -0.4069,-0.1475 -0.7554,-0.3714 -1.0469,-0.6722 -0.2908,-0.3027 -0.5141,-0.6882 -0.6721,-1.152 -0.1556,-0.4696 -0.2361,-1.0255 -0.2361,-1.6754 0,-0.5847 0.083,-1.1094 0.2511,-1.5741 0.1686,-0.4618 0.3969,-0.8492 0.6849,-1.1642 0.2936,-0.3154 0.642,-0.5588 1.054,-0.7273 0.4089,-0.1686 0.8575,-0.2551 1.3447,-0.2551 0.4765,0 0.9152,0.07 1.3142,0.2072 0.4019,0.1372 0.7531,0.3535 1.0512,0.6522 0.3016,0.2962 0.5349,0.6808 0.7027,1.1529 0.1684,0.4686 0.2509,1.0397 0.2509,1.7083 z m -1.7459,0 c 0,-0.8712 -0.138,-1.4826 -0.414,-1.8387 -0.2787,-0.356 -0.6699,-0.5367 -1.1741,-0.5367 -0.2388,0 -0.4544,0.041 -0.642,0.1227 -0.1935,0.084 -0.3563,0.2168 -0.4943,0.3998 -0.138,0.1828 -0.2441,0.4256 -0.3166,0.734 -0.07,0.3056 -0.1051,0.6787 -0.1051,1.1189 0,0.8786 0.1252,1.4917 0.3791,1.8458 0.2501,0.3514 0.6342,0.5275 1.1513,0.5275 0.2559,0 0.4864,-0.041 0.6849,-0.123 0.2005,-0.084 0.3711,-0.2141 0.509,-0.3996 0.138,-0.1827 0.2434,-0.4258 0.3136,-0.7342 0.073,-0.3056 0.1082,-0.6786 0.1082,-1.1165"
       inkscape:connector-curvature="0" />
    <path
       id="path3311"
       style="fill:#ffffff;fill-opacity:1;fill-rule:nonzero;stroke:none"
       d="m 152.78092,529.51852 c 0,0.3827 -0.082,0.7177 -0.2431,1.0014 -0.1608,0.2864 -0.3733,0.517 -0.6372,0.6931 -0.261,0.1808 -0.5668,0.3131 -0.9161,0.3998 -0.3484,0.087 -0.7067,0.1295 -1.078,0.1295 -0.4019,0 -0.8079,-0.043 -1.2168,-0.1295 -0.412,-0.087 -0.7682,-0.2094 -1.0741,-0.3637 0.058,-0.2551 0.1175,-0.4979 0.1807,-0.7217 0.06,-0.2246 0.1302,-0.4551 0.2057,-0.6931 0.2958,0.1562 0.6451,0.2741 1.0432,0.3562 0.4019,0.084 0.783,0.1246 1.1471,0.1246 0.3236,0 0.5541,-0.065 0.6919,-0.1923 0.141,-0.1275 0.2085,-0.3083 0.2085,-0.5369 0,-0.1997 -0.083,-0.3581 -0.2512,-0.4715 -0.1648,-0.1157 -0.376,-0.219 -0.6292,-0.3082 -0.2511,-0.091 -0.5241,-0.1849 -0.8159,-0.2742 -0.2907,-0.091 -0.5617,-0.217 -0.8149,-0.3732 -0.2511,-0.1543 -0.4616,-0.3562 -0.6302,-0.6039 -0.1648,-0.2454 -0.2501,-0.5655 -0.2501,-0.9604 0,-0.3827 0.082,-0.7196 0.2431,-1.0082 0.1628,-0.2885 0.3811,-0.5246 0.6601,-0.7124 0.2757,-0.1874 0.5944,-0.3301 0.9579,-0.4262 0.3613,-0.096 0.7423,-0.1441 1.1443,-0.1441 0.2481,0 0.5389,0.019 0.8733,0.053 0.3334,0.039 0.6443,0.094 0.93,0.1663 -0.01,0.2096 -0.034,0.4402 -0.08,0.6856 -0.043,0.2477 -0.092,0.4886 -0.15,0.7292 -0.1229,-0.045 -0.2687,-0.084 -0.4365,-0.1179 -0.1659,-0.031 -0.3365,-0.06 -0.5143,-0.082 -0.1756,-0.024 -0.3543,-0.041 -0.5299,-0.055 -0.1756,-0.012 -0.3404,-0.019 -0.4943,-0.019 -0.5993,0 -0.9001,0.2503 -0.9001,0.753 0,0.1856 0.085,0.3297 0.2509,0.4409 0.1658,0.1076 0.3733,0.2065 0.6224,0.2931 0.2481,0.087 0.5191,0.1781 0.8149,0.2744 0.2958,0.099 0.5667,0.2286 0.8156,0.3997 0.2484,0.1685 0.4566,0.3875 0.6225,0.6496 0.1678,0.2674 0.2501,0.6159 0.2501,1.0445"
       inkscape:connector-curvature="0" />
    <path
       id="path3313"
       style="fill:#ffffff;fill-opacity:1;fill-rule:nonzero;stroke:none"
       d="m 158.84732,531.42582 c -0.095,0.046 -0.2112,0.09 -0.3442,0.1304 -0.1322,0.041 -0.271,0.077 -0.4062,0.103 -0.1407,0.029 -0.2757,0.048 -0.4087,0.063 -0.1332,0.014 -0.2534,0.019 -0.3565,0.019 -0.8405,0 -1.4499,-0.1971 -1.8262,-0.5971 -0.3763,-0.3969 -0.5647,-1.0178 -0.5647,-1.8575 l 0,-3.473 -0.8733,0 0,-1.3739 0.8733,0 0,-1.5092 c 0.2383,-0.053 0.507,-0.1056 0.8079,-0.1562 0.3007,-0.051 0.5747,-0.084 0.8228,-0.1037 l 0,1.7691 1.9165,0 c 0,0.2217 -0.01,0.4454 -0.02,0.6738 -0.015,0.2286 -0.04,0.4618 -0.077,0.7001 l -1.8192,0 0,3.5813 c 0,0.3752 0.078,0.6183 0.2283,0.7295 0.1528,0.1078 0.4019,0.1629 0.7454,0.1629 0.1806,0 0.374,-0.019 0.5795,-0.062 0.2035,-0.041 0.3683,-0.094 0.4943,-0.1588 0.055,0.2019 0.1023,0.4209 0.143,0.6615 0.038,0.2361 0.065,0.4696 0.085,0.698"
       inkscape:connector-curvature="0" />
    <path
       id="path3315"
       style="fill:#ffffff;fill-opacity:1;fill-rule:nonzero;stroke:none"
       d="m 166.00112,527.36412 c 0,0.1562 0,0.3295 -0.015,0.5218 -0.01,0.1903 -0.025,0.3711 -0.043,0.535 l -4.2043,0 0,0.1227 c 0,0.2953 0.027,0.5484 0.082,0.7627 0.061,0.2141 0.1528,0.3942 0.2888,0.534 0.133,0.142 0.3156,0.2476 0.5497,0.3179 0.233,0.067 0.5261,0.1011 0.8804,0.1011 0.1728,0 0.3484,-0.01 0.5291,-0.034 0.1806,-0.022 0.364,-0.055 0.5446,-0.096 0.1807,-0.041 0.3465,-0.087 0.4993,-0.1372 0.153,-0.05 0.286,-0.1059 0.4012,-0.1733 0.075,0.2142 0.148,0.4503 0.2162,0.7177 0.065,0.2618 0.1172,0.515 0.155,0.753 -0.153,0.073 -0.3286,0.1372 -0.5291,0.1926 -0.2007,0.053 -0.4069,0.1034 -0.6224,0.1446 -0.2133,0.041 -0.4287,0.07 -0.645,0.089 -0.2125,0.017 -0.406,0.027 -0.5796,0.027 -1.1536,0 -2.0346,-0.2982 -2.6441,-0.8999 -0.6124,-0.5971 -0.9152,-1.507 -0.9152,-2.7221 0,-0.6501 0.078,-1.213 0.2353,-1.6897 0.1578,-0.4741 0.3791,-0.8712 0.6649,-1.1863 0.286,-0.3152 0.6245,-0.5513 1.0163,-0.7075 0.3891,-0.1543 0.8151,-0.2313 1.2715,-0.2313 0.9837,0 1.7063,0.2722 2.1677,0.8207 0.4616,0.5485 0.6957,1.2948 0.6957,2.2384 z m -2.8902,-1.8651 c -0.4295,0 -0.7605,0.1446 -0.9965,0.438 -0.2331,0.2933 -0.3533,0.7701 -0.3641,1.4271 l 2.5894,0 c 0.01,-0.046 0.015,-0.1085 0.015,-0.1925 l 0,-0.2046 c 0,-0.5131 -0.1023,-0.8854 -0.3086,-1.1196 -0.2054,-0.2332 -0.5163,-0.3484 -0.935,-0.3484"
       inkscape:connector-curvature="0" />
    <path
       id="path3317"
       style="fill:#ffffff;fill-opacity:1;fill-rule:nonzero;stroke:none"
       d="m 172.32342,531.60532 0,-4.9548 c 0,-0.3104 -0.078,-0.5492 -0.2356,-0.7131 -0.1585,-0.1655 -0.4516,-0.2502 -0.8811,-0.2502 -0.5688,0 -1.0909,0.159 -1.5575,0.4692 l 0,5.4489 -1.6335,0 0,-7.1092 c 0.2311,-0.027 0.4973,-0.05 0.7951,-0.068 0.3015,-0.019 0.5797,-0.029 0.8384,-0.029 l 0,0.7124 0.086,0 c 0.371,-0.3268 0.7225,-0.5458 1.0509,-0.6522 0.3287,-0.103 0.6651,-0.1564 1.0086,-0.1564 0.2857,0 0.5597,0.038 0.8226,0.1155 0.2632,0.08 0.4943,0.2024 0.695,0.371 0.1984,0.1704 0.3562,0.397 0.4714,0.6809 0.1159,0.2838 0.1708,0.6302 0.1708,1.0423 l 0,5.0919 -1.6307,0 z"
       inkscape:connector-curvature="0" />
    <path
       id="path3319"
       style="fill:#ffffff;fill-opacity:1;fill-rule:nonzero;stroke:none"
       d="m 178.16132,522.53282 c 0,0.2483 -0.08,0.4625 -0.2353,0.6451 -0.1579,0.1829 -0.394,0.2744 -0.7106,0.2744 -0.3028,0 -0.5311,-0.091 -0.6849,-0.2792 -0.1551,-0.1875 -0.2303,-0.4017 -0.2303,-0.6404 0,-0.2383 0.075,-0.4544 0.2303,-0.6522 0.1538,-0.1945 0.3868,-0.2934 0.7008,-0.2934 0.3155,0 0.5466,0.093 0.7017,0.2886 0.1507,0.1903 0.2283,0.4093 0.2283,0.657 z m -1.746,1.906 1.6308,0 0,7.1642 -1.6308,0 0,-7.1642 z"
       inkscape:connector-curvature="0" />
    <path
       id="path3321"
       style="fill:#ffffff;fill-opacity:1;fill-rule:nonzero;stroke:none"
       d="m 186.81642,527.74752 c 0,1.2824 -0.2939,2.2667 -0.8804,2.958 -0.5846,0.6931 -1.4125,1.0367 -2.4813,1.0367 -0.562,0 -1.0888,-0.065 -1.5811,-0.1923 -0.4915,-0.1275 -0.933,-0.3399 -1.3241,-0.6302 l 0,-9.415 c 0.2283,-0.027 0.4942,-0.055 0.795,-0.077 0.3008,-0.022 0.5795,-0.033 0.8357,-0.033 l 0,3.6647 0.088,0 c 0.3035,-0.2933 0.6021,-0.4932 0.8931,-0.5989 0.2908,-0.1037 0.6122,-0.1564 0.9657,-0.1564 0.3821,0 0.7354,0.062 1.059,0.185 0.3236,0.1254 0.6074,0.3226 0.8505,0.5969 0.2433,0.2743 0.4338,0.6303 0.5717,1.071 0.141,0.438 0.2086,0.9701 0.2086,1.5911 z m -1.746,0.1514 c 0,-0.4306 -0.03,-0.7865 -0.093,-1.071 -0.06,-0.2811 -0.153,-0.5105 -0.2709,-0.6789 -0.1174,-0.1678 -0.2682,-0.2886 -0.4516,-0.356 -0.1807,-0.067 -0.3914,-0.1032 -0.6275,-0.1032 -0.5637,0 -1.0459,0.1658 -1.4471,0.4953 l 0,3.8968 c 0.1528,0.1008 0.3365,0.1752 0.5439,0.2258 0.2113,0.051 0.4248,0.075 0.6451,0.075 0.5895,0 1.0233,-0.1829 1.2942,-0.5559 0.271,-0.3704 0.407,-1.0132 0.407,-1.9279"
       inkscape:connector-curvature="0" />
    <path
       id="path3323"
       style="fill:#ffffff;fill-opacity:1;fill-rule:nonzero;stroke:none"
       d="m 188.83392,531.60532 0,-10.1006 c 0.2284,-0.027 0.4943,-0.055 0.7959,-0.077 0.3008,-0.022 0.5768,-0.033 0.8349,-0.033 l 0,10.2111 -1.6308,0 z"
       inkscape:connector-curvature="0" />
    <path
       id="path3325"
       style="fill:#ffffff;fill-opacity:1;fill-rule:nonzero;stroke:none"
       d="m 198.52092,527.36412 c 0,0.1562 0,0.3295 -0.015,0.5218 -0.01,0.1903 -0.023,0.3711 -0.043,0.535 l -4.205,0 0,0.1227 c 0,0.2953 0.027,0.5484 0.083,0.7627 0.06,0.2141 0.153,0.3942 0.288,0.534 0.133,0.142 0.3166,0.2476 0.5499,0.3179 0.2361,0.067 0.5269,0.1011 0.8804,0.1011 0.1734,0 0.3493,-0.01 0.5299,-0.034 0.1806,-0.022 0.3633,-0.055 0.5439,-0.096 0.1806,-0.041 0.3465,-0.087 0.4993,-0.1372 0.153,-0.05 0.286,-0.1059 0.4019,-0.1733 0.074,0.2142 0.1477,0.4503 0.2155,0.7177 0.065,0.2618 0.1179,0.515 0.1555,0.753 -0.1535,0.073 -0.3284,0.1372 -0.5296,0.1926 -0.2007,0.053 -0.4061,0.1034 -0.6224,0.1446 -0.2125,0.041 -0.4288,0.07 -0.6443,0.089 -0.2132,0.017 -0.4067,0.027 -0.5796,0.027 -1.1542,0 -2.0346,-0.2982 -2.644,-0.8999 -0.6124,-0.5971 -0.916,-1.507 -0.916,-2.7221 0,-0.6501 0.078,-1.213 0.2361,-1.6897 0.1578,-0.4741 0.3783,-0.8712 0.6641,-1.1863 0.2867,-0.3152 0.6252,-0.5513 1.0163,-0.7075 0.3919,-0.1543 0.8156,-0.2313 1.2723,-0.2313 0.9834,0 1.706,0.2722 2.1676,0.8207 0.4616,0.5485 0.695,1.2948 0.695,2.2384 z m -2.8902,-1.8651 c -0.429,0 -0.7605,0.1446 -0.9965,0.438 -0.2333,0.2933 -0.3535,0.7701 -0.3633,1.4271 l 2.5894,0 c 0.01,-0.046 0.015,-0.1085 0.015,-0.1925 l 0,-0.2046 c 0,-0.5131 -0.1031,-0.8854 -0.3086,-1.1196 -0.2054,-0.2332 -0.517,-0.3484 -0.9358,-0.3484"
       inkscape:connector-curvature="0" />
    <path
       id="path3327"
       style="fill:#000000;fill-opacity:1;fill-rule:nonzero;stroke:none"
       d="m 139.94082,514.62942 c -0.143,0.079 -0.3136,0.1516 -0.5113,0.2122 -0.2012,0.062 -0.4097,0.1127 -0.6222,0.1536 -0.2113,0.039 -0.4267,0.07 -0.6453,0.091 -0.2182,0.025 -0.4167,0.036 -0.5923,0.036 -1.3917,0 -2.4534,-0.3658 -3.186,-1.095 -0.7296,-0.7292 -1.0959,-1.848 -1.0959,-3.3522 0,-0.8377 0.1102,-1.5576 0.3284,-2.1566 0.2186,-0.5988 0.5116,-1.0928 0.8827,-1.4774 0.372,-0.3829 0.8008,-0.6667 1.285,-0.8474 0.4814,-0.18 0.9957,-0.2715 1.5376,-0.2715 0.4117,0 0.8435,0.024 1.2921,0.076 0.4488,0.051 0.8379,0.1379 1.1694,0.2628 -0.038,0.2693 -0.093,0.5731 -0.1708,0.9073 -0.075,0.3343 -0.1607,0.6474 -0.256,0.9434 -0.2938,-0.1275 -0.6074,-0.2122 -0.938,-0.2647 -0.3287,-0.051 -0.6473,-0.077 -0.9537,-0.077 -0.3306,0 -0.6194,0.046 -0.8678,0.1372 -0.2489,0.091 -0.4543,0.2406 -0.6199,0.45 -0.1658,0.2096 -0.291,0.4837 -0.3813,0.8228 -0.087,0.3399 -0.13,0.7579 -0.13,1.2565 0,0.5656 0.04,1.0323 0.1222,1.4007 0.083,0.3656 0.2112,0.6541 0.3891,0.8664 0.1784,0.2067 0.404,0.3533 0.6827,0.4399 0.2779,0.085 0.6023,0.1257 0.9807,0.1257 0.3186,0 0.652,-0.039 1.0012,-0.1153 0.3466,-0.082 0.6443,-0.1886 0.8932,-0.3255 0.093,0.2846 0.1759,0.5779 0.2484,0.8835 0.07,0.3057 0.1229,0.611 0.1578,0.9168"
       inkscape:connector-curvature="0" />
    <path
       id="path3329"
       style="fill:#000000;fill-opacity:1;fill-rule:nonzero;stroke:none"
       d="m 149.21232,512.57602 c 0,0.2258 0.038,0.3827 0.1152,0.4741 0.078,0.091 0.2155,0.1372 0.4169,0.1372 l 1.0432,0 0,0.6284 c 0,0.4856 -0.148,0.8255 -0.4438,1.0178 -0.2938,0.1922 -0.6423,0.2885 -1.0412,0.2885 -0.354,0 -0.7005,-0.079 -1.0361,-0.238 -0.3365,-0.1562 -0.5946,-0.4695 -0.7703,-0.934 l -0.053,0 c -0.4136,0.419 -0.8256,0.7198 -1.2393,0.9005 -0.414,0.1801 -0.8307,0.2715 -1.2547,0.2715 -1.0738,0 -1.9045,-0.3533 -2.4863,-1.0616 -0.5846,-0.7073 -0.8753,-1.8023 -0.8753,-3.2848 0,-0.8014 0.095,-1.5061 0.2907,-2.1125 0.1935,-0.6046 0.4695,-1.1121 0.823,-1.5186 0.3542,-0.4075 0.778,-0.7131 1.2722,-0.9169 0.4965,-0.2048 1.0462,-0.3057 1.6458,-0.3057 0.5191,0 1.0382,0.079 1.558,0.2354 0.1658,-0.068 0.3563,-0.1179 0.5748,-0.1514 0.2175,-0.032 0.4458,-0.05 0.6819,-0.05 0.143,0 0.2787,0 0.4069,0.019 0.13,0.01 0.2532,0.027 0.3711,0.048 l 0,6.5533 z m -2.0347,-4.6354 c -0.1756,-0.1011 -0.3889,-0.1803 -0.6373,-0.2383 -0.2488,-0.055 -0.4892,-0.084 -0.7253,-0.084 -0.3535,0 -0.6598,0.048 -0.9209,0.1439 -0.2582,0.099 -0.4737,0.2599 -0.6443,0.4931 -0.1706,0.2313 -0.2988,0.537 -0.3812,0.915 -0.08,0.3798 -0.1231,0.852 -0.1231,1.4195 0,0.554 0.035,1.0139 0.1074,1.3746 0.068,0.361 0.1756,0.6496 0.3166,0.8638 0.1427,0.2168 0.3256,0.3656 0.5489,0.4503 0.2233,0.087 0.4893,0.1275 0.7958,0.1275 0.3536,0 0.6649,-0.036 0.9281,-0.1085 0.2659,-0.074 0.512,-0.18 0.7353,-0.315 l 0,-5.0422 z"
       inkscape:connector-curvature="0" />
    <path
       id="path3331"
       style="fill:#000000;fill-opacity:1;fill-rule:nonzero;stroke:none"
       d="m 157.59912,514.73052 c -0.1178,0.058 -0.2608,0.1111 -0.4237,0.1617 -0.1658,0.05 -0.3337,0.093 -0.5043,0.1275 -0.1736,0.034 -0.3384,0.06 -0.5043,0.076 -0.1655,0.015 -0.3135,0.027 -0.4415,0.027 -1.0392,0 -1.7916,-0.2476 -2.258,-0.741 -0.4666,-0.4912 -0.6997,-1.2565 -0.6997,-2.2983 l 0,-4.2956 -1.0791,0 0,-1.6967 1.0791,0 0,-1.8659 c 0.2958,-0.069 0.6292,-0.1343 1.0005,-0.1971 0.3714,-0.06 0.7105,-0.103 1.0184,-0.1275 l 0,2.1905 2.3688,0 c 0,0.2715 -0.01,0.5485 -0.025,0.8322 -0.018,0.2838 -0.05,0.573 -0.097,0.8645 l -2.2459,0 0,4.4301 c 0,0.4645 0.093,0.7634 0.2838,0.9006 0.1884,0.1369 0.4942,0.2038 0.9182,0.2038 0.2233,0 0.4614,-0.024 0.7153,-0.076 0.2554,-0.05 0.4616,-0.116 0.6117,-0.1951 0.071,0.2476 0.1309,0.5198 0.1786,0.8132 0.045,0.296 0.082,0.5845 0.1051,0.8664"
       inkscape:connector-curvature="0" />
    <path
       id="path3333"
       style="fill:#000000;fill-opacity:1;fill-rule:nonzero;stroke:none"
       d="m 166.44692,509.70872 c 0,0.1904 -0.01,0.4039 -0.017,0.6425 -0.013,0.2383 -0.03,0.4599 -0.053,0.6619 l -5.2036,0 0,0.1542 c 0,0.3608 0.036,0.676 0.1061,0.9408 0.072,0.2646 0.1904,0.4864 0.3563,0.6616 0.1628,0.1781 0.3911,0.3083 0.6799,0.3922 0.288,0.085 0.652,0.1276 1.0888,0.1276 0.2125,0 0.4308,-0.015 0.6541,-0.043 0.2235,-0.029 0.4468,-0.068 0.6728,-0.1209 0.2234,-0.048 0.4288,-0.1058 0.6195,-0.1684 0.1884,-0.062 0.3542,-0.1324 0.4942,-0.2116 0.095,0.26 0.1835,0.5533 0.266,0.8806 0.082,0.3297 0.148,0.64 0.1934,0.934 -0.1884,0.091 -0.4067,0.1707 -0.6528,0.2381 -0.2481,0.068 -0.5043,0.1275 -0.7702,0.1781 -0.2652,0.05 -0.5311,0.087 -0.7973,0.1104 -0.2637,0.022 -0.5021,0.034 -0.7153,0.034 -1.4273,0 -2.5189,-0.3704 -3.2743,-1.1119 -0.7544,-0.7417 -1.1315,-1.8651 -1.1315,-3.3695 0,-0.8013 0.095,-1.4993 0.2915,-2.0868 0.193,-0.5866 0.4686,-1.0779 0.8229,-1.4672 0.3535,-0.3923 0.7725,-0.6836 1.2567,-0.874 0.4842,-0.1925 1.0083,-0.2885 1.5731,-0.2885 1.2147,0 2.1101,0.3388 2.6819,1.0177 0.5723,0.6787 0.8583,1.6004 0.8583,2.7677 z m -3.5751,-2.3107 c -0.5299,0 -0.9408,0.1809 -1.2296,0.5418 -0.2888,0.3637 -0.4388,0.9501 -0.4516,1.7689 l 3.2038,0 c 0.013,-0.058 0.018,-0.1372 0.018,-0.2408 l 0,-0.2523 c 0,-0.6331 -0.1279,-1.0957 -0.3811,-1.3844 -0.2539,-0.2885 -0.64,-0.4332 -1.1593,-0.4332"
       inkscape:connector-curvature="0" />
    <path
       id="path3335"
       style="fill:#000000;fill-opacity:1;fill-rule:nonzero;stroke:none"
       d="m 173.84222,506.02282 c 0,0.3275 -0.017,0.6618 -0.052,1.0016 -0.036,0.3391 -0.083,0.676 -0.1437,1.0033 -0.2334,-0.058 -0.5114,-0.087 -0.83,-0.087 -0.3186,0 -0.6272,0.043 -0.9287,0.1278 -0.3009,0.084 -0.6117,0.2476 -0.9281,0.4835 l 0,6.399 -2.0168,0 0,-8.7915 c 0.2807,-0.033 0.6094,-0.063 0.9807,-0.087 0.371,-0.022 0.7153,-0.034 1.0361,-0.034 l 0,1.1381 0.1052,0 c 0.236,-0.2962 0.4468,-0.5246 0.6372,-0.6856 0.1884,-0.1658 0.3691,-0.2886 0.5399,-0.3752 0.1706,-0.087 0.3334,-0.1398 0.4865,-0.1617 0.1528,-0.024 0.3013,-0.034 0.4416,-0.034 0.095,0 0.2034,0.01 0.3286,0.024 0.1229,0.017 0.2381,0.044 0.3439,0.077"
       inkscape:connector-curvature="0" />
    <path
       id="path3337"
       style="fill:#000000;fill-opacity:1;fill-rule:nonzero;stroke:none"
       d="m 178.01782,503.73212 c 0,0.3057 -0.098,0.5701 -0.2911,0.7995 -0.1954,0.2257 -0.4869,0.3362 -0.876,0.3362 -0.3784,0 -0.6621,-0.1153 -0.8498,-0.3465 -0.1887,-0.2332 -0.2838,-0.4932 -0.2838,-0.7892 0,-0.2962 0.095,-0.5629 0.2838,-0.8064 0.1877,-0.2429 0.4764,-0.3656 0.8675,-0.3656 0.3889,0 0.6777,0.1208 0.8656,0.3588 0.1884,0.2361 0.2838,0.5076 0.2838,0.8132 z m -2.1579,2.359 2.0169,0 0,8.861 -2.0169,0 0,-8.861 z"
       inkscape:connector-curvature="0" />
    <path
       id="path3339"
       style="fill:#000000;fill-opacity:1;fill-rule:nonzero;stroke:none"
       d="m 186.29852,514.95142 0,-6.1274 c 0,-0.3847 -0.098,-0.6788 -0.2908,-0.8834 -0.1957,-0.202 -0.5569,-0.3057 -1.0888,-0.3057 -0.7075,0 -1.3525,0.1949 -1.9293,0.5778 l 0,6.7387 -2.0169,0 0,-8.7915 c 0.283,-0.034 0.6114,-0.063 0.9827,-0.084 0.3721,-0.024 0.7155,-0.036 1.0342,-0.036 l 0,0.8861 0.1051,0 c 0.4616,-0.4094 0.8954,-0.6768 1.3021,-0.8065 0.4062,-0.1302 0.8229,-0.1971 1.2469,-0.1971 0.354,0 0.6927,0.048 1.0191,0.1439 0.3234,0.096 0.6094,0.2503 0.8575,0.4571 0.2484,0.2122 0.4418,0.4912 0.5846,0.8425 0.141,0.3514 0.2105,0.7798 0.2105,1.2881 l 0,6.2979 -2.0169,0 z"
       inkscape:connector-curvature="0" />
    <path
       id="path3341"
       style="fill:#000000;fill-opacity:1;fill-rule:nonzero;stroke:none"
       d="m 198.66672,515.44402 c 0,0.4645 -0.086,0.8901 -0.2562,1.2806 -0.1698,0.3919 -0.426,0.7262 -0.7702,1.0007 -0.3407,0.2788 -0.7752,0.496 -1.2993,0.6547 -0.5241,0.1591 -1.1413,0.2383 -1.8491,0.2383 -0.7097,0 -1.2993,-0.07 -1.7687,-0.2022 -0.4742,-0.1369 -0.8525,-0.3254 -1.1413,-0.5607 -0.2888,-0.2388 -0.4972,-0.5129 -0.6222,-0.8233 -0.1232,-0.3124 -0.1836,-0.6448 -0.1836,-0.994 0,-0.3514 0.07,-0.6543 0.2112,-0.9073 0.143,-0.2551 0.3535,-0.5172 0.6372,-0.7894 -0.1053,-0.1706 -0.2084,-0.3581 -0.3115,-0.5607 -0.097,-0.2046 -0.1777,-0.4065 -0.2381,-0.6113 0.038,-0.1227 0.083,-0.2789 0.143,-0.457 0.057,-0.1829 0.133,-0.3733 0.221,-0.5778 0.088,-0.2046 0.1877,-0.4039 0.3008,-0.6017 0.1132,-0.2 0.2263,-0.3704 0.3465,-0.5198 -0.3216,-0.2258 -0.5748,-0.5172 -0.7632,-0.8732 -0.1877,-0.3561 -0.283,-0.773 -0.283,-1.2493 0,-0.8805 0.2888,-1.5982 0.8675,-2.1467 0.5776,-0.5484 1.3925,-0.8235 2.4414,-0.8235 0.1658,0 0.3267,0.01 0.4795,0.027 0.1528,0.017 0.3008,0.036 0.4415,0.06 0,-0.418 0.058,-0.7769 0.1779,-1.0805 0.1182,-0.2983 0.2787,-0.5458 0.4873,-0.7457 0.2054,-0.1971 0.4437,-0.3417 0.7147,-0.4331 0.271,-0.089 0.5617,-0.1351 0.8683,-0.1351 0.7901,0 1.184,0.3514 1.184,1.0539 l 0,0.6455 -0.9913,0 c -0.3535,0 -0.6094,0.077 -0.7675,0.2361 -0.1605,0.1581 -0.241,0.4016 -0.241,0.7311 l 0,0.3562 c 0.3434,0.2599 0.6023,0.5797 0.7802,0.9579 0.1756,0.3807 0.2639,0.8061 0.2639,1.2804 0,0.4885 -0.078,0.9101 -0.2391,1.2662 -0.1578,0.3561 -0.3783,0.6474 -0.662,0.8732 -0.2838,0.2264 -0.6195,0.397 -1.0084,0.5083 -0.3891,0.1153 -0.8158,0.1733 -1.2745,0.1733 -0.2233,0 -0.4415,-0.019 -0.655,-0.053 -0.2133,-0.033 -0.4012,-0.068 -0.5668,-0.1011 -0.1528,0.202 -0.2589,0.3897 -0.3186,0.5581 -0.058,0.1712 -0.088,0.318 -0.088,0.4429 0,0.193 0.045,0.3253 0.133,0.3997 0.088,0.074 0.2283,0.1083 0.4137,0.1083 l 2.5319,0 c 0.4138,0 0.7831,0.038 1.1065,0.1134 0.3259,0.072 0.6018,0.1992 0.8329,0.38 0.2283,0.1807 0.4059,0.4257 0.5291,0.7388 0.126,0.3102 0.1857,0.6979 0.1857,1.1624 z m -1.9118,0.1875 c 0,-0.3295 -0.061,-0.5463 -0.1856,-0.6548 -0.123,-0.1057 -0.3485,-0.1611 -0.6799,-0.1611 l -3.0608,0 c -0.095,0.1257 -0.1609,0.2648 -0.1957,0.4239 -0.035,0.1588 -0.053,0.3008 -0.053,0.4254 0,0.2361 0.033,0.4436 0.097,0.6188 0.065,0.1762 0.1736,0.3179 0.3264,0.4238 0.153,0.1083 0.3612,0.1875 0.6194,0.2407 0.2589,0.048 0.5896,0.074 0.9915,0.074 0.6847,0 1.2118,-0.1083 1.5831,-0.3225 0.3711,-0.2144 0.5567,-0.5725 0.5567,-1.0685 z m -0.8307,-6.8417 c 0,-0.5656 -0.1349,-0.9578 -0.4059,-1.1795 -0.2739,-0.2219 -0.6322,-0.3323 -1.0791,-0.3323 -0.9912,0 -1.4877,0.5056 -1.4877,1.5118 0,0.5438 0.1252,0.9311 0.3813,1.1617 0.2539,0.2313 0.6222,0.3495 1.1064,0.3495 0.4597,0 0.8209,-0.1133 1.0861,-0.3392 0.266,-0.2264 0.3989,-0.6167 0.3989,-1.172"
       inkscape:connector-curvature="0" />
    <g
       transform="translate(-18.609476,-221.15298)"
       inkscape:label="CropMarks"
       id="CropMarks">
      <path
         style="fill:none;stroke:#000000;stroke-width:0.25"
         id="cropTL1"
         d="m 14.22063,575.08694 0,-35.43307"
         inkscape:connector-curvature="0" />
      <path
         style="fill:none;stroke:#000000;stroke-width:0.25"
         id="cropTL2"
         d="m -3.4959054,592.80348 -35.4330706,0"
         inkscape:connector-curvature="0" />
      <path
         style="fill:none;stroke:#000000;stroke-width:0.25"
         id="cropTR1"
         d="m 723.58205,575.08694 0,-35.43307"
         inkscape:connector-curvature="0" />
      <path
         style="fill:none;stroke:#000000;stroke-width:0.25"
         id="cropTR2"
         d="m 741.29859,592.80348 35.43307,0"
         inkscape:connector-curvature="0" />
      <path
         style="fill:none;stroke:#000000;stroke-width:0.25"
         id="cropBL1"
         d="m 14.22063,858.55162 0,35.43307"
         inkscape:connector-curvature="0" />
      <path
         style="fill:none;stroke:#000000;stroke-width:0.25"
         id="cropBL2"
         d="m -3.4959054,840.83508 -35.4330706,0"
         inkscape:connector-curvature="0" />
      <path
         style="fill:none;stroke:#000000;stroke-width:0.25"
         id="cropBR1"
         d="m 723.58205,858.55162 0,35.43307"
         inkscape:connector-curvature="0" />
      <path
         style="fill:none;stroke:#000000;stroke-width:0.25"
         id="cropBR2"
         d="m 741.29859,840.83508 35.43307,0"
         inkscape:connector-curvature="0" />
    </g>
  </g>
</svg>
