<?xml version="1.0" encoding="UTF-8" standalone="no"?>
<!-- Created with Inkscape (http://www.inkscape.org/) -->

<svg
   xmlns:dc="http://purl.org/dc/elements/1.1/"
   xmlns:cc="http://creativecommons.org/ns#"
   xmlns:rdf="http://www.w3.org/1999/02/22-rdf-syntax-ns#"
   xmlns:svg="http://www.w3.org/2000/svg"
   xmlns="http://www.w3.org/2000/svg"
   xmlns:sodipodi="http://sodipodi.sourceforge.net/DTD/sodipodi-0.dtd"
   xmlns:inkscape="http://www.inkscape.org/namespaces/inkscape"
   width="230.28223mm"
   height="100.28222mm"
   viewBox="0 0 815.96065 355.3307"
   id="svg5476"
   version="1.1"
   inkscape:version="0.91 r13725"
   sodipodi:docname="carteltipo.svg">
  <defs
     id="defs5478" />
  <sodipodi:namedview
     id="base"
     pagecolor="#ffffff"
     bordercolor="#666666"
     borderopacity="1.0"
     inkscape:pageopacity="0.0"
     inkscape:pageshadow="2"
     inkscape:zoom="0.7"
     inkscape:cx="545.45523"
     inkscape:cy="70.779078"
     inkscape:document-units="px"
     inkscape:current-layer="layer1"
     showgrid="false"
     fit-margin-top="0"
     fit-margin-left="0"
     fit-margin-right="0"
     fit-margin-bottom="0"
     inkscape:window-width="1280"
     inkscape:window-height="958"
     inkscape:window-x="0"
     inkscape:window-y="27"
     inkscape:window-maximized="1" />
  <metadata
     id="metadata5481">
    <rdf:RDF>
      <cc:Work
         rdf:about="">
        <dc:format>image/svg+xml</dc:format>
        <dc:type
           rdf:resource="http://purl.org/dc/dcmitype/StillImage" />
        <dc:title></dc:title>
      </cc:Work>
    </rdf:RDF>
  </metadata>
  <g
     inkscape:label="Capa 1"
     inkscape:groupmode="layer"
     id="layer1"
     transform="translate(22.26608,-286.12542)">
    <g
       id="g5429"
       style="stroke:none"
       transform="matrix(1.0512179,0,0,1.1466164,-20.507014,676.62627)">
      <rect
         style="color:#000000;clip-rule:nonzero;display:inline;overflow:visible;visibility:visible;opacity:1;isolation:auto;mix-blend-mode:normal;color-interpolation:sRGB;color-interpolation-filters:linearRGB;solid-color:#000000;solid-opacity:1;fill:none;fill-opacity:1;fill-rule:nonzero;stroke:none;stroke-width:1;stroke-linecap:butt;stroke-linejoin:miter;stroke-miterlimit:10;stroke-dasharray:none;stroke-dashoffset:0;stroke-opacity:1;marker:none;color-rendering:auto;image-rendering:auto;shape-rendering:auto;text-rendering:auto;enable-background:accumulate"
         id="rect4448"
         width="708.66144"
         height="248.03149"
         x="32.011341"
         y="-309.85648" />
      <rect
         y="-185.84076"
         x="32.011341"
         height="124.01575"
         width="708.66144"
         id="rect5250"
         style="color:#000000;clip-rule:nonzero;display:inline;overflow:visible;visibility:visible;opacity:1;isolation:auto;mix-blend-mode:normal;color-interpolation:sRGB;color-interpolation-filters:linearRGB;solid-color:#000000;solid-opacity:1;fill:#8dc8ab;fill-opacity:1;fill-rule:nonzero;stroke:none;stroke-width:11.95199966;stroke-linecap:butt;stroke-linejoin:miter;stroke-miterlimit:10;stroke-dasharray:none;stroke-dashoffset:0;stroke-opacity:1;marker:none;color-rendering:auto;image-rendering:auto;shape-rendering:auto;text-rendering:auto;enable-background:accumulate" />
    </g>
    <text
       xml:space="preserve"
       style="font-style:normal;font-variant:normal;font-weight:600;font-stretch:normal;font-size:62.5px;line-height:100%;font-family:'Titillium Web';-inkscape-font-specification:'Titillium Web, Semi-Bold';text-align:center;letter-spacing:0px;word-spacing:-0.01px;writing-mode:lr-tb;text-anchor:middle;fill:#786daa;fill-opacity:1;stroke:none;stroke-width:1px;stroke-linecap:butt;stroke-linejoin:miter;stroke-opacity:1"
       x="474.26526"
       y="422.15363"
       id="text4826"
       sodipodi:linespacing="100%"><tspan
         sodipodi:role="line"
         id="tspan4828"
         x="474.26526"
         y="422.15363">Restaurante/Bar</tspan></text>
    <rect
       y="357.70755"
       x="48.174858"
       height="214.11575"
       width="158.66321"
       id="rect3572"
       style="color:#000000;clip-rule:nonzero;display:inline;overflow:visible;visibility:visible;opacity:1;isolation:auto;mix-blend-mode:normal;color-interpolation:sRGB;color-interpolation-filters:linearRGB;solid-color:#000000;solid-opacity:1;fill:#ffffff;fill-opacity:1;fill-rule:nonzero;stroke:none;stroke-width:1.19760644;stroke-linecap:butt;stroke-linejoin:miter;stroke-miterlimit:10;stroke-dasharray:none;stroke-dashoffset:0;stroke-opacity:1;marker:none;color-rendering:auto;image-rendering:auto;shape-rendering:auto;text-rendering:auto;enable-background:accumulate" />
    <path
       style="fill:#8dc8ab"
       d="m 172.88489,510.61589 c -0.299,-0.36039 -5.2205,-9.6181 -5.2205,-9.82004 0,-0.0932 0.8557,-0.18166 1.9016,-0.19652 1.0458,-0.0147 4.7977,-0.0807 8.3374,-0.14627 l 6.436,-0.11924 -0.079,-27.49907 c -0.043,-15.12451 -0.1311,-29.51764 -0.195,-31.9848 l -0.1163,-4.48567 -8.3862,-0.0975 -8.3863,-0.0975 0.048,-13.35952 c 0.08,-22.04438 0.4013,-55.75438 0.5336,-55.96837 0.083,-0.13384 5.148,-0.19996 15.3206,-0.19996 l 15.1971,0 0.09,0.43882 c 0.1377,0.66844 0.4632,143.3752 0.3273,143.532 -0.065,0.0753 -5.8525,0.16304 -12.8605,0.19505 -10.1676,0.0466 -12.7838,0.008 -12.9489,-0.19142 z"
       id="path3706"
       inkscape:connector-curvature="0" />
    <path
       style="fill:#786daa"
       d="m 82.219686,544.7725 c -0.528,-0.006 -1.063,0.0383 -1.6028,0.12192 -3.3374,0.51636 -5.326,2.25189 -6.3812,5.56443 -0.5925,1.86031 -0.7619,6.89034 -0.3047,9.05054 0.7573,3.57773 2.5688,5.79621 5.3694,6.58223 0.5505,0.15456 1.7536,0.23204 3.1388,0.20111 1.9809,-0.044 2.3794,-0.11254 3.413,-0.59115 2.1368,-0.98962 3.4699,-2.7358 4.2175,-5.52178 0.3343,-1.24607 0.4083,-2.09318 0.4083,-4.55269 0,-4.38479 -0.6461,-6.60499 -2.5232,-8.61177 -1.3332,-1.42532 -3.4468,-2.22977 -5.7351,-2.24284 z m -0.1097,5.08295 c 1.2063,0.0185 2.3861,0.90341 2.9255,2.58416 0.9994,3.11392 0.3044,7.26993 -1.4079,8.40449 -0.8522,0.56463 -2.2185,0.58159 -3.0595,0.0427 -0.3314,-0.21234 -0.8579,-0.8443 -1.1702,-1.40785 -0.5537,-0.99937 -0.5668,-1.09362 -0.5668,-3.85179 0,-2.57511 0.039,-2.91204 0.4571,-3.76042 0.6739,-1.36851 1.7575,-2.02751 2.8218,-2.01125 z"
       id="path4043"
       inkscape:connector-curvature="0" />
    <path
       style="fill:#786daa"
       d="m 56.049186,565.83752 c -0.075,-0.0751 -0.1364,-4.72938 -0.1364,-10.34297 l 0,-10.20652 2.7065,0 c 1.9295,0 2.7634,0.0699 2.9047,0.24377 0.1091,0.1341 1.1351,2.52079 2.2802,5.30383 2.3037,5.59874 2.3796,5.76408 2.644,5.76408 0.1114,0 0.2058,-2.23429 0.237,-5.60709 l 0.052,-5.60709 2.2428,0 2.2428,0 0.051,10.02185 c 0.036,7.23856 -0.011,10.09576 -0.1701,10.28782 -0.1646,0.19831 -0.8336,0.2659 -2.6302,0.2659 -2.2847,0 -2.4242,-0.023 -2.6932,-0.43877 -0.1561,-0.24141 -1.3064,-2.76461 -2.5562,-5.60715 -1.2498,-2.84254 -2.3514,-5.25014 -2.4479,-5.35031 -0.097,-0.10011 -0.2428,-0.11484 -0.325,-0.0332 -0.082,0.0821 -0.1934,2.66527 -0.2471,5.74036 l -0.098,5.59121 -1.9601,0.0555 c -1.0781,0.0306 -2.0216,-0.006 -2.0966,-0.0813 z"
       id="path4039"
       inkscape:connector-curvature="0" />
    <path
       style="fill:#786daa"
       d="m 96.121586,565.70814 c -0.2382,-0.287 -5.4936,-19.4706 -5.4936,-20.05308 0,-0.35817 0.1379,-0.37545 2.5806,-0.32392 l 2.5806,0.0542 1.2719,6.51744 c 1.1789,6.0412 1.5401,7.28791 1.83,6.31641 0.095,-0.31806 1.0649,-5.00012 2.093104,-10.10348 0.6196,-3.07515 0.3413,-2.82793 3.1826,-2.82793 1.3368,0 2.4724,0.0678 2.5235,0.15054 0.051,0.0828 -0.3425,1.68446 -0.8749,3.55925 -0.5324,1.87485 -1.8086,6.39272 -2.8361,10.03977 -1.0275,3.64705 -1.9669,6.69548 -2.0877,6.77429 -0.4042,0.26367 -4.539704,0.17382 -4.770004,-0.10368 z"
       id="path4037"
       inkscape:connector-curvature="0" />
    <path
       style="fill:#786daa"
       d="m 112.17499,545.30882 c -1.2593,-4.5e-4 -1.3195,0.0863 -1.4627,0.41447 -0.3018,0.6912 -5.2597,19.39172 -5.2597,19.83807 0,0.37691 0.1163,0.40229 2.316,0.40229 2.545,0 2.6177,-0.0332 2.8279,-1.20068 0.071,-0.39183 0.2659,-0.76485 0.4327,-0.82887 0.1667,-0.064 1.381,-0.11573 2.6999,-0.11573 2.6317,0 2.7389,0.0427 2.962,1.18843 0.071,0.36518 0.2302,0.72564 0.3474,0.80445 0.1172,0.0788 1.2446,0.14436 2.5049,0.14627 l 2.2916,0.006 -0.018,-0.53632 c -0.01,-0.29497 -1.1285,-4.92449 -2.4866,-10.28781 l -2.4683,-9.75144 -2.9803,-0.0548 c -0.7334,-0.0134 -1.2868,-0.0242 -1.7065,-0.0242 z m 1.4627,6.81994 c 0.058,-0.008 0.1156,0.0242 0.1828,0.0914 0.2814,0.28133 1.4621,6.02602 1.3165,6.40548 -0.1671,0.43532 -2.8145,0.46255 -2.9803,0.0306 -0.1145,-0.29835 1.0522,-5.95958 1.3164,-6.38724 0.052,-0.0834 0.1067,-0.13225 0.1646,-0.14016 z"
       id="path4035"
       inkscape:connector-curvature="0" />
    <path
       style="fill:#786daa"
       d="m 125.82729,565.72377 c -0.052,-0.13761 -0.1157,-3.62913 -0.1426,-7.75888 l -0.049,-7.50859 -2.2429,-0.0975 -2.2428,-0.0976 0,-2.43782 0,-2.43789 6.9723,-0.051 6.9723,-0.051 0,2.53788 0,2.53781 -2.1215,0 c -1.5336,0 -2.1814,0.0723 -2.3379,0.26092 -0.1485,0.17886 -0.2327,2.61879 -0.2677,7.75243 l -0.051,7.49151 -2.1978,0.0555 c -1.6503,0.0414 -2.221,-0.007 -2.2913,-0.19505 z"
       id="path4031"
       inkscape:connector-curvature="0" />
    <path
       style="fill:#786daa"
       d="m 136.98239,565.83363 c -0.073,-0.0729 -0.1326,-4.72549 -0.1326,-10.33908 l 0,-10.20652 6.631,0 6.631,0 0,2.43407 0,2.43406 -4.2419,0.0523 -4.2418,0.0523 0,1.2677 0,1.26769 3.413,0.0975 3.413,0.0975 0,2.34039 0,2.34034 -3.413,0.10922 c -1.8772,0.0599 -3.435,0.12587 -3.4618,0.14628 -0.027,0.0204 -0.049,0.60442 -0.049,1.29785 0,1.04694 0.064,1.29505 0.3772,1.46268 0.2259,0.1209 2.0284,0.20194 4.4915,0.20194 l 4.1143,0 -0.055,2.48661 -0.055,2.48667 -6.6447,0.051 c -3.6546,0.0281 -6.7044,-0.008 -6.7773,-0.0813 z"
       id="path4029"
       inkscape:connector-curvature="0" />
    <path
       style="fill:#786daa"
       d="m 152.45459,545.2601 0,10.22074 c 0,5.62175 0.059,10.27997 0.1341,10.35483 0.075,0.0748 1.106,0.11541 2.2915,0.0853 l 2.1576,-0.0548 0.098,-2.92543 c 0.054,-1.60902 0.1631,-3.03517 0.2498,-3.16926 0.2121,-0.32775 3.194,-0.32354 3.8458,0.006 0.7386,0.3736 0.9359,1.00448 1.0848,3.4557 0.075,1.23357 0.2228,2.35251 0.3291,2.4866 0.1362,0.17178 0.9154,0.24383 2.6329,0.24383 l 2.4379,0 -0.1341,-0.63387 c -0.2064,-1.00983 -0.306,-2.01265 -0.4937,-4.89402 -0.157,-2.41066 -0.2287,-2.78502 -0.6765,-3.46175 -0.5993,-0.90564 -0.6198,-1.18218 -0.128,-1.62726 0.2046,-0.18517 0.5738,-0.79144 0.8228,-1.34695 0.3838,-0.85616 0.4536,-1.33241 0.4571,-3.15096 0,-1.99786 -0.034,-2.22575 -0.579,-3.31548 -0.4941,-0.98815 -0.7368,-1.24601 -1.5602,-1.65773 -0.9669,-0.48346 -1.0259,-0.4915 -6.9723,-0.55462 l -5.9971,-0.0612 z m 6.3994,5.10731 c 0.2324,0 0.4931,0.008 0.7923,0.0185 1.8604,0.0631 2.0368,0.10413 2.4013,0.55462 0.5513,0.68132 0.4168,2.44178 -0.2255,2.96197 -0.3643,0.29503 -0.7916,0.35963 -2.444,0.35963 -2.3059,0 -2.2381,0.0631 -2.2428,-2.06003 0,-1.57848 0.092,-1.84724 1.7187,-1.83449 z"
       id="path4027"
       inkscape:connector-curvature="0" />
    <path
       style="fill:#786daa"
       d="m 193.23389,545.321 c -1.1106,0.007 -1.7571,0.0631 -1.8588,0.16457 -0.1153,0.11522 -1.3914,4.65063 -2.8402,10.08059 -1.4487,5.42989 -2.7379,9.91039 -2.8644,9.9526 -0.4629,0.15425 -0.6723,-0.80444 -0.8533,-3.96765 -0.1836,-3.2079 -0.3798,-4.07197 -1.1824,-5.16221 -0.182,-0.24721 -0.1038,-0.47013 0.3901,-1.15189 0.8281,-1.1431 1.1946,-2.48718 1.1946,-4.38812 0,-2.86134 -0.7719,-4.44333 -2.4928,-5.1073 -0.8173,-0.31545 -1.578,-0.35351 -6.7711,-0.35351 l -5.8509,0 -0.055,10.01962 c -0.037,7.23849 0.011,10.0957 0.1706,10.28782 0.2911,0.35064 4.0787,0.37652 4.4248,0.0306 0.1608,-0.16074 0.2377,-1.12734 0.2377,-3.09606 0,-2.43311 0.043,-2.88589 0.3047,-2.98639 0.1697,-0.0651 0.9972,-0.11579 1.8406,-0.11579 1.3094,0 1.6073,0.064 2.0417,0.43882 0.6309,0.54429 0.8716,1.52466 0.8776,3.62021 0.01,2.55579 -0.4534,2.3606 5.5644,2.35863 4.8609,0 5.1718,-0.0255 5.3572,-0.37175 0.1084,-0.20245 0.2012,-0.54186 0.2012,-0.75573 0,-0.85775 0.447,-0.9995 3.1204,-0.9995 2.7482,0 2.6916,-0.023 3.0291,1.26769 l 0.2072,0.78009 2.383,0.0548 c 1.8337,0.0421 2.4046,-0.009 2.4805,-0.20723 0.054,-0.1415 -1.0248,-4.77383 -2.3952,-10.29388 l -2.4866,-10.0318 -2.9132,-0.0548 c -0.4712,-0.009 -0.8914,-0.0147 -1.2616,-0.0121 z m -15.6511,5.07689 c 1.5878,0.0134 2.0152,0.28547 2.3221,1.21891 0.2992,0.90979 0.049,1.8936 -0.5973,2.34646 -0.5647,0.39552 -4.1958,0.42664 -4.3455,0.0363 -0.055,-0.14309 -0.074,-0.99874 -0.043,-1.90151 l 0.061,-1.6395 1.8528,-0.0548 c 0.2772,-0.008 0.5228,-0.008 0.7497,-0.006 z m 16.5958,1.73693 c 0.057,-0.0108 0.117,0.0159 0.1767,0.0793 0.2587,0.27444 1.4545,6.0982 1.3226,6.44208 -0.164,0.42735 -2.8214,0.4056 -2.9864,-0.0242 -0.1224,-0.31895 1.0384,-5.8909 1.3225,-6.35064 0.052,-0.0847 0.1071,-0.13531 0.1646,-0.14628 z"
       id="path4023"
       inkscape:connector-curvature="0" />
    <path
       style="fill:#786daa"
       d="m 73.841686,541.32631 c -1.3137,-0.3697 -2.6583,-1.22695 -3.288,-2.09624 -1.1709,-1.61636 -1.2814,-2.57384 -1.2814,-11.10457 l 0,-7.70365 2.5759,-0.0542 2.5759,-0.0542 0.057,7.95303 c 0.062,8.63709 0.065,8.66094 1.1709,9.47948 0.6273,0.46414 2.0492,0.52592 2.8041,0.12192 1.1267,-0.60296 1.1439,-0.73348 1.2502,-9.44958 l 0.098,-7.99614 2.4964,-0.0548 2.4963,-0.0548 -0.059,8.34799 c 0,0 -0.1873,2.76098 -0.1873,8.34594 0,0.53052 -0.5168,1.31297 -0.5168,1.31297 -0.6823,1.41441 -1.3399,2.01813 -2.8756,2.71188 -0.8241,0.37226 -1.3619,0.44367 -3.6949,0.49079 -1.7944,0.0363 -3.0359,-0.0306 -3.6218,-0.19575 z"
       id="path4017"
       inkscape:connector-curvature="0" />
    <path
       style="fill:#786daa"
       d="m 145.76939,541.3807 c -1.7382,-0.43417 -3.128,-1.56764 -3.7672,-3.07222 -0.7162,-1.68611 -0.9048,-3.63308 -0.8151,-8.41755 0.1027,-5.47822 0.3352,-6.52421 1.8164,-8.17161 1.1975,-1.33191 2.4357,-1.79343 5.177,-1.92976 5.2052,-0.25882 7.6419,1.46033 7.925,5.59141 l 0.1079,1.57433 -2.5632,0 -2.5632,0 -10e-4,-0.73137 c 0,-1.94755 -0.791,-2.97421 -2.2831,-2.97421 -1.0469,0 -1.8442,0.67838 -2.1956,1.86816 -0.3246,1.09859 -0.477,7.25781 -0.2325,9.39282 0.3196,2.79057 0.8458,3.5917 2.3853,3.63206 1.5305,0.0402 2.1873,-0.78691 2.4184,-3.04499 l 0.1346,-1.31647 2.5488,0 2.5489,0 -0.1142,1.61744 c -0.2098,2.97281 -1.1589,4.59611 -3.2593,5.57412 -0.9689,0.45126 -1.3367,0.504 -3.803,0.54538 -1.5018,0.0255 -3.0609,-0.0363 -3.4648,-0.13754 z"
       id="path4015"
       inkscape:connector-curvature="0" />
    <path
       style="fill:#786daa"
       d="m 173.91389,519.95509 c -3.6312,-0.0217 -5.7685,1.18978 -7.1917,4.02243 -0.8832,1.75785 -1.2376,3.66752 -1.2373,6.68585 7e-4,4.23291 0.7046,6.67048 2.4806,8.56912 1.0322,1.1035 2.4959,1.87811 4.0285,2.1331 3.2226,0.53613 6.0709,-0.22713 7.8195,-2.09656 1.8322,-1.95883 2.4988,-4.18885 2.511,-8.41061 0.016,-5.53344 -1.3418,-8.64219 -4.4369,-10.1659 -1.097,-0.54008 -1.5212,-0.63719 -3.2241,-0.71919 -0.2556,-0.0121 -0.5076,-0.0166 -0.7496,-0.0185 z m -0.01,5.05247 c 1.8548,0 2.9657,1.4104 3.3155,4.21136 0.4493,3.59859 -0.6081,6.56661 -2.5293,7.10032 -0.3816,0.10597 -0.7326,0.18102 -0.7862,0.17063 -1.5126,-0.2928 -2.1924,-0.79775 -2.7548,-2.04778 -0.563,-1.25143 -0.7959,-3.38829 -0.5668,-5.22317 0.3497,-2.80096 1.4668,-4.21136 3.3216,-4.21136 z"
       id="path4013"
       inkscape:connector-curvature="0" />
    <path
       style="fill:#786daa"
       d="m 55.853286,541.06794 c -0.075,-0.0745 -0.1355,-4.77236 -0.1355,-10.43958 l 0,-10.30407 5.8508,0 5.8509,0 0,1.65295 0,1.65289 -3.1692,0.0536 -3.1692,0.0536 -0.054,2.46237 c -0.065,2.94086 -0.3791,2.69939 3.5161,2.70321 l 2.6817,0 0,1.56025 0,1.56024 -2.6817,0 c -1.4749,0 -2.8775,0.0548 -3.1168,0.1193 -0.432,0.1158 -0.4356,0.14927 -0.4876,4.53177 l -0.052,4.41515 -2.4486,0.0542 c -1.3467,0.03 -2.5096,-0.007 -2.5841,-0.0813 z"
       id="path4009"
       inkscape:connector-curvature="0" />
    <path
       style="fill:#786daa"
       d="m 88.033986,541.0687 c -0.075,-0.0749 -0.1364,-4.77312 -0.1364,-10.44034 l 0,-10.30407 3.7955,0 3.7956,0 0.1887,0.73137 c 0.1038,0.40222 0.8648,3.58367 1.691,7.06984 0.8262,3.4861 1.5881,6.55781 1.693,6.826 0.1814,0.46363 0.1987,0.46841 0.3506,0.0975 0.088,-0.21451 0.166,-3.61536 0.1736,-7.55738 l 0.014,-7.16733 2.047804,0 2.0478,0 0,10.43409 0,10.43402 -3.698004,0 -3.6981,0 -0.1968,-0.73137 c -0.1083,-0.40222 -0.8615,-3.53973 -1.6739,-6.97228 -1.5564,-6.57598 -1.8049,-7.43654 -2.0706,-7.17084 -0.09,0.0905 -0.1875,3.45232 -0.2157,7.47073 l -0.051,7.30627 -1.9601,0.0548 c -1.0781,0.0306 -2.0215,-0.006 -2.0966,-0.0813 z"
       id="path4007"
       inkscape:connector-curvature="0" />
    <path
       style="fill:#786daa"
       d="m 107.01279,520.29636 0,10.4645 0,10.47063 4.9245,-0.0853 c 4.3146,-0.0737 5.0763,-0.13334 6.1495,-0.48754 3.4924,-1.15267 4.2264,-3.11539 4.0956,-10.92776 -0.072,-4.28092 -0.1161,-4.71413 -0.5363,-5.79602 -0.5547,-1.42793 -1.7268,-2.63441 -3.0534,-3.13266 -0.8148,-0.30594 -1.711,-0.36964 -6.2653,-0.4327 l -5.3146,-0.0731 z m 6.1922,3.35207 c 0.4252,0 0.9585,0.0649 1.5236,0.20724 1.1089,0.27916 1.7481,1.03336 2.0113,2.36469 0.3486,1.76384 0.454,5.03806 0.2316,7.14903 -0.2509,2.38114 -0.7269,3.45008 -1.7736,3.97371 -0.898,0.44934 -2.8306,0.46803 -2.9985,0.0306 -0.065,-0.16967 -0.1158,-3.22626 -0.1158,-6.7894 0,-4.77879 0.059,-6.5376 0.2316,-6.71021 0.1467,-0.14678 0.4646,-0.22285 0.8898,-0.22553 z"
       id="path4005"
       inkscape:connector-curvature="0" />
    <path
       style="fill:#786daa"
       d="m 158.49809,530.75838 0,-10.43409 2.5353,0 2.5354,0 0,10.43409 0,10.43402 -2.5354,0 -2.5353,0 z"
       id="path4001"
       inkscape:connector-curvature="0" />
    <path
       style="fill:#786daa"
       d="m 131.44629,520.13178 c -2.4426,0 -2.7952,0.0408 -2.9559,0.34133 -0.3091,0.57834 -5.4852,20.1787 -5.3755,20.35616 0.057,0.0917 1.1486,0.17063 2.4257,0.17063 2.096,0 2.3409,-0.0376 2.5232,-0.37786 0.111,-0.20749 0.2072,-0.55399 0.2072,-0.76791 0,-0.85687 0.448,-0.99951 3.1083,-0.99951 2.6903,0 2.7925,0.0357 3.0412,1.07264 0.2477,1.03266 0.3553,1.07264 2.834,1.07264 1.2677,0 2.3427,-0.0735 2.3952,-0.15845 0.1527,-0.24696 -4.9423,-20.39423 -5.1987,-20.55727 -0.1276,-0.0811 -1.4799,-0.1508 -3.0047,-0.1524 z m 0.036,6.91744 c 0.044,0 0.08,0.0108 0.1097,0.0427 0.2447,0.2613 1.4199,6.23688 1.2921,6.57005 -0.1775,0.46248 -2.8208,0.45732 -2.9986,-0.006 -0.1391,-0.36237 1.0732,-6.07754 1.3713,-6.46643 0.066,-0.0867 0.1522,-0.13589 0.2255,-0.14016 z"
       id="path3999"
       inkscape:connector-curvature="0" />
    <path
       style="fill:#786daa"
       d="m 183.94129,540.75358 c -0.051,-0.1341 -0.071,-4.71969 -0.043,-10.19026 l 0.051,-9.94648 2.8367,-0.0536 2.8368,-0.0536 2.0243,4.92947 c 2.3614,5.75056 2.6864,6.44604 2.9387,6.29007 0.1129,-0.0698 0.1876,-2.32267 0.1876,-5.66276 l 0,-5.54677 2.2428,0 2.2428,0 0,10.23898 0,10.23903 -2.6279,0 -2.6278,0 -0.2766,-0.53632 c -0.152,-0.29497 -1.2602,-2.77431 -2.4625,-5.50959 -1.2023,-2.73529 -2.2791,-5.0871 -2.3929,-5.22623 -0.443,-0.54174 -0.528,0.38042 -0.5309,5.76261 l 0,5.50953 -2.1514,0 c -1.5414,0 -2.178,-0.0691 -2.2449,-0.24377 z"
       id="path3995"
       inkscape:connector-curvature="0" />
    <path
       style="fill:#786daa"
       d="m 171.56499,518.4187 c 0,-0.20768 1.737,-3.18425 2.1031,-3.60394 0.2476,-0.28388 0.6372,-0.34133 2.3153,-0.34133 1.1097,0 2.0176,0.0675 2.0176,0.14991 0,0.0825 -0.8573,1.00402 -1.9051,2.04784 l -1.905,1.89787 -1.3129,0 c -0.7222,0 -1.313,-0.0677 -1.313,-0.15035 z"
       id="path3993"
       inkscape:connector-curvature="0" />
    <path
       style="fill:#786daa"
       d="m 54.809386,497.11584 c 0.1055,-11.47632 0.6896,-116.66675 0.708,-127.50019 l 0,-3.16927 54.506904,0 54.5069,0 0.1057,0.43883 c 0.058,0.24134 0.082,24.35428 0.053,53.58422 l -0.053,53.14541 -1.1906,-2.14528 c -0.6549,-1.17995 -3.761,-6.75293 -6.9024,-12.38437 -3.1415,-5.63145 -7.2454,-13.00353 -9.1199,-16.38245 -1.8744,-3.37886 -3.5463,-6.25308 -3.7152,-6.38718 -0.2363,-0.18759 -2.4913,-0.24313 -9.7775,-0.24084 -5.2087,0 -9.5804,0.0728 -9.7148,0.1582 -0.1945,0.12345 -0.2343,6.65894 -0.195,32.03052 l 0.049,31.87532 9.5333,0.16241 c 7.966,0.13575 9.5772,0.11854 9.8002,-0.10445 0.2246,-0.22457 0.2378,-3.1669 0.083,-18.58778 -0.101,-10.07651 -0.1448,-18.35971 -0.098,-18.40702 0.047,-0.0472 0.1217,-0.0497 0.1651,-0.006 0.133,0.1369 18.2606,32.38237 22.5717,40.15068 2.2296,4.01758 4.0127,7.34568 3.9626,7.39586 -0.05,0.0504 -26.0386,0.14194 -57.7521,0.20398 l -57.660804,0.1128 0.1282,-13.94455 z"
       id="path3704"
       inkscape:connector-curvature="0" />
    <g
       transform="translate(-0.62781429,649.6315)"
       inkscape:label="CropMarks"
       id="CropMarks">
      <path
         style="fill:none;stroke:#000000;stroke-width:0.25"
         id="cropTL1"
         d="m 31.51134,-328.07301 0,-35.43307"
         inkscape:connector-curvature="0" />
      <path
         style="fill:none;stroke:#000000;stroke-width:0.25"
         id="cropTL2"
         d="m 13.794805,-310.35647 -35.433071,0"
         inkscape:connector-curvature="0" />
      <path
         style="fill:none;stroke:#000000;stroke-width:0.25"
         id="cropTR1"
         d="m 741.17278,-328.07301 0,-35.43307"
         inkscape:connector-curvature="0" />
      <path
         style="fill:none;stroke:#000000;stroke-width:0.25"
         id="cropTR2"
         d="m 758.88932,-310.35647 35.43307,0"
         inkscape:connector-curvature="0" />
      <path
         style="fill:none;stroke:#000000;stroke-width:0.25"
         id="cropBL1"
         d="m 31.51134,-43.608445 0,35.4330713"
         inkscape:connector-curvature="0" />
      <path
         style="fill:none;stroke:#000000;stroke-width:0.25"
         id="cropBL2"
         d="m 13.794805,-61.32498 -35.433071,0"
         inkscape:connector-curvature="0" />
      <path
         style="fill:none;stroke:#000000;stroke-width:0.25"
         id="cropBR1"
         d="m 741.17278,-43.608445 0,35.4330713"
         inkscape:connector-curvature="0" />
      <path
         style="fill:none;stroke:#000000;stroke-width:0.25"
         id="cropBR2"
         d="m 758.88932,-61.32498 35.43307,0"
         inkscape:connector-curvature="0" />
    </g>
  </g>
</svg>
